<svg xmlns="http://www.w3.org/2000/svg" viewBox="0 0 1200 800" role="img" aria-label="죽도시장 밤 풍경을 표현한 POING 자체 제작 비주얼">
  <defs>
    <linearGradient id="night" x1="0" x2="1" y1="0" y2="1"><stop offset="0" stop-color="#07192c"/><stop offset="0.58" stop-color="#153959"/><stop offset="1" stop-color="#332216"/></linearGradient>
    <linearGradient id="stall" x1="0" x2="0" y1="0" y2="1"><stop offset="0" stop-color="#f0b669"/><stop offset="1" stop-color="#8c3e24"/></linearGradient>
  </defs>
  <rect width="1200" height="800" fill="url(#night)"/>
  <path d="M0 430 H1200 V800 H0 Z" fill="#0b2238"/>
  <g opacity="0.92">
    <path d="M90 384 H360 L324 462 H126 Z" fill="#f4c26d"/>
    <path d="M420 360 H720 L672 462 H468 Z" fill="#f0a94f"/>
    <path d="M780 390 H1110 L1064 470 H826 Z" fill="#f2bd66"/>
    <rect x="122" y="462" width="198" height="190" rx="8" fill="url(#stall)"/>
    <rect x="468" y="462" width="204" height="198" rx="8" fill="url(#stall)"/>
    <rect x="826" y="470" width="238" height="186" rx="8" fill="url(#stall)"/>
  </g>
  <g fill="#ffe5ad">
    <circle cx="176" cy="336" r="19"/><circle cx="260" cy="326" r="17"/><circle cx="515" cy="318" r="18"/><circle cx="608" cy="312" r="17"/><circle cx="900" cy="346" r="18"/><circle cx="1008" cy="334" r="19"/>
  </g>
  <g stroke="#ffe5ad" stroke-width="3" opacity="0.48">
    <path d="M176 354 L124 462"/><path d="M260 343 L318 462"/><path d="M515 336 L468 462"/><path d="M608 329 L672 462"/><path d="M900 364 L826 470"/><path d="M1008 353 L1064 470"/>
  </g>
  <g fill="#142132">
    <circle cx="210" cy="666" r="24"/><rect x="192" y="687" width="36" height="66" rx="12"/>
    <circle cx="555" cy="674" r="25"/><rect x="536" y="696" width="38" height="72" rx="12"/>
    <circle cx="938" cy="668" r="24"/><rect x="920" y="690" width="36" height="67" rx="12"/>
  </g>
  <path d="M0 692 C240 660 400 700 620 672 C820 646 960 685 1200 650 L1200 800 L0 800 Z" fill="#061426" opacity="0.38"/>
</svg>
